<svg width="14" height="15" viewBox="0 0 14 15" xmlns="http://www.w3.org/2000/svg">
<path fill-rule="evenodd" clip-rule="evenodd" d="M4.77726 1.52307V0.833374H3.55121V1.52307H0.946401C0.607835 1.52307 0.333374 1.79753 0.333374 2.13609V13.5537C0.333374 13.8923 0.607835 14.1667 0.946401 14.1667H13.0537C13.3922 14.1667 13.6667 13.8923 13.6667 13.5537V2.13609C13.6667 1.79753 13.3922 1.52307 13.0537 1.52307H10.3713V0.833374H9.14526V1.52307H4.77726ZM3.55121 2.74907V3.34205H4.77726V2.74907H9.14526V3.34205H10.3713V2.74907H12.4402V4.16671H1.55901V2.74907H3.55121ZM1.55901 5.00962V12.9406H12.4402V5.00962H1.55901Z"/>
</svg>
