<svg width="18" height="16" viewBox="0 0 18 16" fill="none" xmlns="http://www.w3.org/2000/svg">
<g opacity="0.01">
<path d="M15.5397 8C15.5397 11.58 12.5732 14.5 8.89156 14.5C5.20996 14.5 2.24341 11.58 2.24341 8C2.24341 4.41997 5.20996 1.5 8.89156 1.5C12.5732 1.5 15.5397 4.41997 15.5397 8Z" stroke="#2F374B"/>
<rect x="2.77002" y="1.5" width="12.2432" height="13" rx="6.12161" stroke="#2F374B"/>
<rect x="2.24341" y="2.01562" width="13.2963" height="11.9688" rx="5.98438" stroke="#2F374B"/>
<path d="M11.9655 8C11.9655 9.64703 10.5991 11 8.89146 11C7.18377 11 5.81738 9.64703 5.81738 8C5.81738 6.35297 7.18377 5 8.89146 5C10.5991 5 11.9655 6.35297 11.9655 8Z" stroke="#2F374B"/>
<path d="M3.57592 11L8.89149 1.98446L14.2071 11H3.57592Z" stroke="#2F374B"/>
</g>
<path fill-rule="evenodd" clip-rule="evenodd" d="M11.2458 4.20285C11.4809 4.45611 11.4619 4.84805 11.2033 5.07828L7.92134 8L11.2033 10.9217C11.4619 11.152 11.4809 11.5439 11.2458 11.7971C11.0107 12.0504 10.6105 12.0691 10.3519 11.8388L6.55487 8.45855C6.42294 8.3411 6.34773 8.1746 6.34773 8C6.34773 7.8254 6.42294 7.6589 6.55487 7.54145L10.3519 4.16117C10.6105 3.93094 11.0107 3.9496 11.2458 4.20285Z" fill="#2F374B"/>
</svg>
