<svg width="14" height="14" viewBox="0 0 14 14"  xmlns="http://www.w3.org/2000/svg">
<path d="M6.99963 0C3.13401 0 -0.000366211 3.13438 -0.000366211 7C-0.000366211 10.8656 3.13401 14 6.99963 14C10.8653 14 13.9996 10.8656 13.9996 7C13.9996 3.13438 10.8653 0 6.99963 0ZM6.99963 12.8125C3.79026 12.8125 1.18713 10.2094 1.18713 7C1.18713 3.79063 3.79026 1.1875 6.99963 1.1875C10.209 1.1875 12.8121 3.79063 12.8121 7C12.8121 10.2094 10.209 12.8125 6.99963 12.8125Z" />
<path d="M9.72944 8.97678L7.50132 7.36585V3.49866C7.50132 3.42991 7.44507 3.37366 7.37632 3.37366H6.62476C6.55601 3.37366 6.49976 3.42991 6.49976 3.49866V7.80178C6.49976 7.84241 6.51851 7.87991 6.55132 7.90335L9.13569 9.78772C9.19194 9.82835 9.27007 9.81585 9.31069 9.76116L9.75757 9.15178C9.79819 9.09397 9.78569 9.01584 9.72944 8.97678Z" />
</svg>
