<svg width="18" height="16" viewBox="0 0 18 16" fill="none" xmlns="http://www.w3.org/2000/svg">
<g opacity="0.01">
<path d="M15.5714 8C15.5714 11.58 12.6049 14.5 8.92329 14.5C5.2417 14.5 2.27515 11.58 2.27515 8C2.27515 4.41997 5.2417 1.5 8.92329 1.5C12.6049 1.5 15.5714 4.41997 15.5714 8Z" stroke="#2F374B"/>
<rect x="2.80176" y="1.5" width="12.2432" height="13" rx="6.12161" stroke="#2F374B"/>
<rect x="2.27515" y="2.01562" width="13.2963" height="11.9688" rx="5.98438" stroke="#2F374B"/>
<path d="M11.9973 8C11.9973 9.64703 10.6309 11 8.92319 11C7.21551 11 5.84912 9.64703 5.84912 8C5.84912 6.35297 7.21551 5 8.92319 5C10.6309 5 11.9973 6.35297 11.9973 8Z" stroke="#2F374B"/>
<path d="M3.60766 11L8.92323 1.98446L14.2388 11H3.60766Z" stroke="#2F374B"/>
</g>
<path fill-rule="evenodd" clip-rule="evenodd" d="M6.56873 4.20302C6.33372 4.45635 6.35291 4.84828 6.61161 5.07842L9.89568 8L6.61161 10.9216C6.35291 11.1517 6.33372 11.5437 6.56873 11.797C6.80374 12.0503 7.20397 12.0691 7.46266 11.839L11.2623 8.4587C11.3944 8.34124 11.4696 8.17468 11.4696 8C11.4696 7.82532 11.3944 7.65876 11.2623 7.5413L7.46266 4.16102C7.20397 3.93088 6.80374 3.94968 6.56873 4.20302Z" fill="#2F374B"/>
</svg>
